<?xml version="1.0" encoding="UTF-8"?>
<svg version="1.1" xmlns="http://www.w3.org/2000/svg" width="200" height="200">
<path d="M0 0 C66 0 132 0 200 0 C200 66 200 132 200 200 C134 200 68 200 0 200 C0 134 0 68 0 0 Z " fill="#040404" transform="translate(0,0)"/>
<path d="M0 0 C0.33 0 0.66 0 1 0 C1.00410889 0.8470752 1.00821777 1.69415039 1.01245117 2.56689453 C1.03953908 5.73206254 1.08873625 8.8959234 1.15258789 12.06054688 C1.17567894 13.42598665 1.1901427 14.79160229 1.19555664 16.15722656 C0.87282078 24.96161932 0.87282078 24.96161932 4.30078125 32.7109375 C5.19152344 33.46632812 6.08226562 34.22171875 7 35 C7.680625 35.6290625 8.36125 36.258125 9.0625 36.90625 C9.701875 37.4321875 10.34125 37.958125 11 38.5 C14.43851678 41.42598315 17.20318447 44.46285095 20 48 C20.66 48.66 21.32 49.32 22 50 C-1.43 50 -24.86 50 -49 50 C-42.2500294 42.1250343 -42.2500294 42.1250343 -39.00170898 38.88818359 C-38.27753281 38.16408295 -37.55335663 37.4399823 -36.80723572 36.69393921 C-35.66322044 35.55766586 -35.66322044 35.55766586 -34.49609375 34.3984375 C-33.29473534 33.19920151 -33.29473534 33.19920151 -32.06910706 31.97573853 C-29.52759369 29.43978368 -26.98261845 26.90733619 -24.4375 24.375 C-22.72437739 22.66689931 -21.01148453 20.95856814 -19.29882812 19.25 C-16.15693702 16.11624707 -13.01375226 12.98380505 -9.86889648 9.85302734 C-6.90866826 6.90592208 -3.95208266 3.9552634 -1 1 C-0.67 0.67 -0.34 0.34 0 0 Z " fill="#F5F9F8" transform="translate(130,79)"/>
<path d="M0 0 C23.43 0 46.86 0 71 0 C64.2500294 7.8749657 64.2500294 7.8749657 61.00170898 11.11181641 C60.27753281 11.83591705 59.55335663 12.5600177 58.80723572 13.30606079 C57.66322044 14.44233414 57.66322044 14.44233414 56.49609375 15.6015625 C55.29473534 16.80079849 55.29473534 16.80079849 54.06910706 18.02426147 C51.52759369 20.56021632 48.98261845 23.09266381 46.4375 25.625 C44.72437739 27.33310069 43.01148453 29.04143186 41.29882812 30.75 C33.37284937 38.65544876 33.37284937 38.65544876 29.834198 42.16485596 C28.69168371 43.30795954 27.55860121 44.4606689 26.44046021 45.62762451 C25.32789682 46.78566439 24.16917123 47.8991402 23 49 C22.34 49 21.68 49 21 49 C21.03254883 48.17910889 21.06509766 47.35821777 21.09863281 46.51245117 C22.40082233 30.34941635 22.40082233 30.34941635 17.4375 15.8359375 C14.61336687 13.08316115 11.31266644 11.12296517 8 9 C6.18590121 7.0916541 4.62754412 5.07871706 3 3 C2.01 2.01 1.02 1.02 0 0 Z " fill="#F8F9F8" transform="translate(48,71)"/>
<path d="M0 0 C0.99 0.99 1.98 1.98 3 3 C1.29556344 4.70443656 -0.409296 6.40839804 -2.1171875 8.109375 C-3.25812128 9.25504295 -4.39084903 10.40907515 -5.5078125 11.578125 C-6.63632171 12.753937 -7.81421522 13.88197435 -9 15 C-9.66 15 -10.32 15 -11 15 C-10.6875 13.0625 -10.6875 13.0625 -10 11 C-9.01 10.67 -8.02 10.34 -7 10 C-7 9.34 -7 8.68 -7 8 C-6.34 7.67 -5.68 7.34 -5 7 C-5 6.01 -5 5.02 -5 4 C-4.360625 3.71125 -3.72125 3.4225 -3.0625 3.125 C-0.84793921 2.17176549 -0.84793921 2.17176549 0 0 Z " fill="#E7E7E7" transform="translate(80,105)"/>
<path d="M0 0 C0.66 0.33 1.32 0.66 2 1 C2.125 3.375 2.125 3.375 2 6 C0 8 0 8 -2 9 C-2.33 9.66 -2.66 10.32 -3 11 C-4.32 9.68 -5.64 8.36 -7 7 C-4.69 4.69 -2.38 2.38 0 0 Z " fill="#E4E9E7" transform="translate(124,85)"/>
<path d="M0 0 C0 4.58852164 -2.9046421 6.81744892 -6 10 C-7.64864545 11.35555293 -9.31003995 12.69631653 -11 14 C-11.33 14.66 -11.66 15.32 -12 16 C-12.99 15.67 -13.98 15.34 -15 15 C-10.05 10.05 -5.1 5.1 0 0 Z " fill="#E0E2DF" transform="translate(100,109)"/>
<path d="M0 0 C2.97 0 5.94 0 9 0 C8.67 2.31 8.34 4.62 8 7 C4.2047869 5.50902342 2.38957269 3.24299151 0 0 Z " fill="#EBEBEB" transform="translate(48,71)"/>
<path d="M0 0 C1.32 0.66 2.64 1.32 4 2 C2.35 3.98 0.7 5.96 -1 8 C-1.33 7.34 -1.66 6.68 -2 6 C-2.99 5.67 -3.98 5.34 -5 5 C-4.34 4.34 -3.68 3.68 -3 3 C-2.34 3 -1.68 3 -1 3 C-0.67 2.01 -0.34 1.02 0 0 Z " fill="#E9E9E9" transform="translate(94,90)"/>
<path d="M0 0 C1.2065625 0.0309375 1.2065625 0.0309375 2.4375 0.0625 C3.0975 2.3725 3.7575 4.6825 4.4375 7.0625 C1.07158134 5.61996343 -1.07297079 3.72985273 -3.5625 1.0625 C-2.5625 0.0625 -2.5625 0.0625 0 0 Z " fill="#0E1514" transform="translate(139.5625,111.9375)"/>
<path d="M0 0 C-1.49097658 3.7952131 -3.75700849 5.61042731 -7 8 C-7.33 6.68 -7.66 5.36 -8 4 C-2.25 0 -2.25 0 0 0 Z " fill="#EAEAEB" transform="translate(112,77)"/>
<path d="M0 0 C0.33 0.66 0.66 1.32 1 2 C1.66 2 2.32 2 3 2 C3.33 1.34 3.66 0.68 4 0 C4 0.99 4 1.98 4 3 C1.5 5.1875 1.5 5.1875 -1 7 C-1 6.34 -1 5.68 -1 5 C-1.66 4.67 -2.32 4.34 -3 4 C-2.01 2.68 -1.02 1.36 0 0 Z " fill="#0D0F0C" transform="translate(91,112)"/>
<path d="M0 0 C1.98 0 3.96 0 6 0 C4.35 1.98 2.7 3.96 1 6 C-0.0625 4.125 -0.0625 4.125 -1 2 C-0.67 1.34 -0.34 0.68 0 0 Z " fill="#EFEFEF" transform="translate(113,71)"/>
<path d="M0 0 C0 0.66 0 1.32 0 2 C0.66 2.33 1.32 2.66 2 3 C1.67 3.99 1.34 4.98 1 6 C-0.98 4.68 -2.96 3.36 -5 2 C-2 0 -2 0 0 0 Z " fill="#E9E9E7" transform="translate(68,85)"/>
<path d="M0 0 C-1.04874998 2.62187494 -1.64931313 3.79371361 -4.125 5.25 C-4.74375 5.4975 -5.3625 5.745 -6 6 C-6 4.33333333 -6 2.66666667 -6 1 C-4 0 -4 0 0 0 Z " fill="#0F0F0F" transform="translate(75,119)"/>
<path d="M0 0 C0.99 0.99 1.98 1.98 3 3 C1.35 4.32 -0.3 5.64 -2 7 C-2.33 5.35 -2.66 3.7 -3 2 C-2.34 2 -1.68 2 -1 2 C-0.67 1.34 -0.34 0.68 0 0 Z " fill="#DFDFDD" transform="translate(80,105)"/>
</svg>
